<svg width="142" height="140" viewBox="0 0 142 140" fill="none" xmlns="http://www.w3.org/2000/svg">
<path d="M41.6834 108.531C58.7379 82.7642 94.214 58.9992 124.95 78.2448C128.778 80.6414 134.276 85.2881 135.211 89.8926C140.195 114.42 81.5646 145.897 53.1273 129.11C51.0623 127.889 40.4284 114.469 39.3167 114.743C35.7673 115.616 25.3528 119.551 22.7422 122.119C22.4945 122.363 33.2373 118.625 42.8684 118.625" stroke="black" stroke-width="11" stroke-linecap="round" stroke-linejoin="round"/>
<path d="M65.8113 90.0125C73.4924 101.832 70.8568 123.018 70.8568 131.486" stroke="black" stroke-width="11" stroke-linecap="round" stroke-linejoin="round"/>
<path d="M86.172 80.6223C92.6076 94.2579 91.5181 109.592 88.3292 123.661" stroke="black" stroke-width="11" stroke-linecap="round" stroke-linejoin="round"/>
<path d="M117.642 98.0177C117.708 98.4266 117.441 98.8205 117.341 99.2227" stroke="black" stroke-width="11" stroke-linecap="round" stroke-linejoin="round"/>
<path d="M79.064 64.4166C80.649 52.9499 50.5334 -0.786038 36.664 6.10886C24.9878 11.9126 58.874 50.2521 63.214 54.5671C66.8607 58.1927 77.4063 69.0038 75.1001 64.4166C71.7157 57.6832 56.8234 50.9827 50.5334 48.2643C-5.093 24.216 -11.4304 74.6827 44.194 66.3877C52.7051 65.1182 61.2023 63.0427 69.5535 61.6588" stroke="black" stroke-width="11" stroke-linecap="round" stroke-linejoin="round"/>
</svg>
