<svg width="764" height="100" viewBox="0 0 764 100" fill="none" xmlns="http://www.w3.org/2000/svg">
<path d="M40.96 95.858C33.536 95.858 27.2213 94.4073 22.016 91.506C16.8107 88.5193 12.8427 83.6553 10.112 76.914C7.46667 70.1727 6.144 61.042 6.144 49.522C6.144 38.002 7.46667 28.914 10.112 22.258C12.8427 15.602 16.8107 10.866 22.016 8.04998C27.2213 5.23398 33.536 3.82598 40.96 3.82598C48.4693 3.82598 54.784 5.23398 59.904 8.04998C65.1093 10.866 69.0347 15.602 71.68 22.258C74.4107 28.914 75.776 38.002 75.776 49.522C75.776 61.042 74.4107 70.1727 71.68 76.914C69.0347 83.6553 65.1093 88.5193 59.904 91.506C54.784 94.4073 48.4693 95.858 40.96 95.858ZM40.96 78.962C44.3733 78.962 47.2747 78.1513 49.664 76.53C52.1387 74.9087 54.016 71.9647 55.296 67.698C56.6613 63.4313 57.344 57.3726 57.344 49.522C57.344 41.586 56.6613 35.57 55.296 31.474C54.016 27.2926 52.1387 24.4766 49.664 23.026C47.2747 21.49 44.3733 20.722 40.96 20.722C37.632 20.722 34.7307 21.49 32.256 23.026C29.7813 24.4766 27.8613 27.2926 26.496 31.474C25.216 35.57 24.576 41.586 24.576 49.522C24.576 57.3726 25.216 63.4313 26.496 67.698C27.8613 71.9647 29.7813 74.9087 32.256 76.53C34.7307 78.1513 37.632 78.962 40.96 78.962ZM100.563 95.858C94.2483 95.858 91.091 92.9993 91.091 87.282V12.402C91.091 9.41531 91.8163 7.23931 93.267 5.87398C94.7177 4.50865 97.0217 3.82598 100.179 3.82598C106.408 3.82598 109.523 6.68465 109.523 12.402V25.202C109.523 35.7833 109.224 42.098 108.627 44.146C110.846 41.9273 113.235 40.3913 115.795 39.538C118.355 38.6846 121.726 38.258 125.907 38.258H138.451V12.402C138.451 9.41531 139.176 7.23931 140.627 5.87398C142.078 4.50865 144.382 3.82598 147.539 3.82598C153.768 3.82598 156.883 6.68465 156.883 12.402V87.282C156.883 90.1833 156.158 92.3593 154.707 93.81C153.342 95.1753 151.08 95.858 147.923 95.858C141.608 95.858 138.451 92.9993 138.451 87.282V49.394C137.939 50.93 136.275 52.21 133.459 53.234C130.643 54.1726 127.358 54.642 123.603 54.642C118.227 54.642 114.515 55.7513 112.467 57.97C110.504 60.1033 109.523 64.0713 109.523 69.874V87.282C109.523 90.1833 108.798 92.3593 107.347 93.81C105.982 95.1753 103.72 95.858 100.563 95.858ZM212.688 95.858C206.373 95.858 203.216 92.9993 203.216 87.282V12.402C203.216 9.41531 203.941 7.23931 205.392 5.87398C206.843 4.50865 209.147 3.82598 212.304 3.82598C218.533 3.82598 221.648 6.68465 221.648 12.402V25.202C221.648 35.7833 221.349 42.098 220.752 44.146C222.971 41.9273 225.36 40.3913 227.92 39.538C230.48 38.6846 233.851 38.258 238.032 38.258H250.576V12.402C250.576 9.41531 251.301 7.23931 252.752 5.87398C254.203 4.50865 256.507 3.82598 259.664 3.82598C265.893 3.82598 269.008 6.68465 269.008 12.402V87.282C269.008 90.1833 268.283 92.3593 266.832 93.81C265.467 95.1753 263.205 95.858 260.048 95.858C253.733 95.858 250.576 92.9993 250.576 87.282V49.394C250.064 50.93 248.4 52.21 245.584 53.234C242.768 54.1726 239.483 54.642 235.728 54.642C230.352 54.642 226.64 55.7513 224.592 57.97C222.629 60.1033 221.648 64.0713 221.648 69.874V87.282C221.648 90.1833 220.923 92.3593 219.472 93.81C218.107 95.1753 215.845 95.858 212.688 95.858ZM319.21 95.858C311.786 95.858 305.471 94.4073 300.266 91.506C295.061 88.5193 291.093 83.6553 288.362 76.914C285.717 70.1727 284.394 61.042 284.394 49.522C284.394 38.002 285.717 28.914 288.362 22.258C291.093 15.602 295.061 10.866 300.266 8.04998C305.471 5.23398 311.786 3.82598 319.21 3.82598C326.719 3.82598 333.034 5.23398 338.154 8.04998C343.359 10.866 347.285 15.602 349.93 22.258C352.661 28.914 354.026 38.002 354.026 49.522C354.026 61.042 352.661 70.1727 349.93 76.914C347.285 83.6553 343.359 88.5193 338.154 91.506C333.034 94.4073 326.719 95.858 319.21 95.858ZM319.21 78.962C322.623 78.962 325.525 78.1513 327.914 76.53C330.389 74.9087 332.266 71.9647 333.546 67.698C334.911 63.4313 335.594 57.3726 335.594 49.522C335.594 41.586 334.911 35.57 333.546 31.474C332.266 27.2926 330.389 24.4766 327.914 23.026C325.525 21.49 322.623 20.722 319.21 20.722C315.882 20.722 312.981 21.49 310.506 23.026C308.031 24.4766 306.111 27.2926 304.746 31.474C303.466 35.57 302.826 41.586 302.826 49.522C302.826 57.3726 303.466 63.4313 304.746 67.698C306.111 71.9647 308.031 74.9087 310.506 76.53C312.981 78.1513 315.882 78.962 319.21 78.962ZM387.133 87.282C387.133 92.9993 384.146 95.858 378.173 95.858C375.272 95.858 372.968 95.1327 371.261 93.682C369.554 92.2313 368.701 90.098 368.701 87.282V36.978C368.701 28.9566 369.768 22.5566 371.901 17.778C374.034 12.914 377.533 9.37265 382.397 7.15398C387.261 4.93531 393.746 3.82598 401.853 3.82598C412.605 3.82598 420.712 6.34332 426.173 11.378C431.72 16.3273 434.493 24.8606 434.493 36.978V87.282C434.493 92.9993 431.506 95.858 425.533 95.858C422.632 95.858 420.328 95.1327 418.621 93.682C416.914 92.2313 416.061 90.098 416.061 87.282V36.978C416.061 30.6633 414.952 26.1833 412.733 23.538C410.6 20.8073 406.973 19.442 401.853 19.442C397.842 19.442 394.77 20.0393 392.637 21.234C390.504 22.4286 389.053 24.306 388.285 26.866C387.517 29.426 387.133 32.7966 387.133 36.978V87.282ZM457.601 94.834C455.98 94.834 454.614 94.194 453.505 92.914C452.396 91.634 451.841 90.0127 451.841 88.05V28.146C451.841 20.1246 454.316 14.322 459.265 10.738C464.214 7.06865 472.193 5.23398 483.201 5.23398H499.201C502.017 5.23398 504.193 6.00198 505.729 7.53798C507.35 8.98865 508.161 11.0793 508.161 13.81C508.161 16.4553 507.35 18.5033 505.729 19.954C504.193 21.4046 502.017 22.13 499.201 22.13H482.305C478.038 22.13 474.966 22.9833 473.089 24.69C471.212 26.3966 470.273 29.17 470.273 33.01C470.273 34.3753 470.188 36.082 470.017 38.13C469.846 40.0926 469.59 42.354 469.249 44.914C470.7 43.7193 472.534 42.7806 474.753 42.098C476.972 41.33 479.148 40.946 481.281 40.946H493.953C496.342 40.946 498.177 41.6713 499.457 43.122C500.822 44.5726 501.505 46.578 501.505 49.138C501.505 51.698 500.822 53.746 499.457 55.282C498.092 56.818 496.257 57.586 493.953 57.586H480.257C476.332 57.586 473.686 58.3966 472.321 60.018C470.956 61.554 470.273 64.7113 470.273 69.49V77.938H499.201C502.358 77.938 504.62 78.6207 505.985 79.986C507.436 81.3513 508.161 83.57 508.161 86.642C508.161 89.5433 507.478 91.634 506.113 92.914C504.748 94.194 502.444 94.834 499.201 94.834H457.601ZM551.424 95.858C545.109 95.858 541.952 92.9993 541.952 87.282V61.81L515.328 18.162C513.792 15.5166 513.195 13.1273 513.536 10.994C513.963 8.86065 514.944 7.15398 516.48 5.87398C518.101 4.50865 519.936 3.82598 521.984 3.82598C524.8 3.82598 527.019 4.67931 528.64 6.38598C530.347 8.09265 532.267 10.994 534.4 15.09L551.808 46.45C555.221 43.2926 557.909 40.6473 559.872 38.514C561.835 36.2953 563.243 34.2046 564.096 32.242C564.949 30.2793 565.376 28.1033 565.376 25.714C565.376 23.3246 565.12 20.6793 564.608 17.778C564.096 14.8766 563.84 12.7433 563.84 11.378C563.84 9.24465 564.736 7.45265 566.528 6.00198C568.32 4.55132 570.496 3.82598 573.056 3.82598C576.128 3.82598 578.475 5.36198 580.096 8.43398C581.803 11.4206 582.656 15.8153 582.656 21.618C582.656 26.3966 582.016 30.8766 580.736 35.058C579.541 39.2393 577.323 43.4633 574.08 47.73C570.923 51.9966 566.357 56.6473 560.384 61.682V87.282C560.384 90.1833 559.659 92.3593 558.208 93.81C556.843 95.1753 554.581 95.858 551.424 95.858ZM605.042 68.082C601.714 68.082 599.325 67.314 597.874 65.778C596.509 64.1566 595.826 62.0233 595.826 59.378V12.53C595.826 9.79932 596.509 7.66598 597.874 6.12998C599.325 4.59398 601.714 3.82598 605.042 3.82598C608.37 3.82598 610.717 4.59398 612.082 6.12998C613.533 7.66598 614.258 9.79932 614.258 12.53V59.378C614.258 62.0233 613.533 64.1566 612.082 65.778C610.717 67.314 608.37 68.082 605.042 68.082ZM605.042 95.858C601.97 95.858 599.495 94.9193 597.618 93.042C595.826 91.1647 594.93 88.7753 594.93 85.874C594.93 82.8873 595.826 80.4553 597.618 78.578C599.495 76.7007 601.97 75.762 605.042 75.762C608.029 75.762 610.461 76.7007 612.338 78.578C614.215 80.4553 615.154 82.8873 615.154 85.874C615.154 88.7753 614.215 91.1647 612.338 93.042C610.461 94.9193 608.029 95.858 605.042 95.858Z" fill="black"/>
<path d="M693.462 77.023C705.467 58.8859 730.438 42.1578 752.073 55.7047C754.768 57.3917 758.638 60.6625 759.296 63.9035C762.804 81.1682 721.535 103.324 701.518 91.5084C700.064 90.6493 692.579 81.2026 691.797 81.3953C689.298 82.0105 681.967 84.7799 680.13 86.5878C679.956 86.7594 687.517 84.128 694.297 84.128" stroke="black" stroke-width="9" stroke-linecap="round" stroke-linejoin="round"/>
<path d="M710.446 63.9873C715.852 72.3074 713.997 87.2194 713.997 93.1806" stroke="black" stroke-width="9" stroke-linecap="round" stroke-linejoin="round"/>
<path d="M724.778 57.3779C729.308 66.976 728.541 77.7694 726.296 87.6725" stroke="black" stroke-width="9" stroke-linecap="round" stroke-linejoin="round"/>
<path d="M746.929 69.623C746.975 69.9109 746.788 70.1881 746.717 70.4712" stroke="black" stroke-width="9" stroke-linecap="round" stroke-linejoin="round"/>
<path d="M719.774 45.9709C720.89 37.8995 699.692 0.075027 689.929 4.92832C681.711 9.01354 705.563 36.0006 708.618 39.0379C711.185 41.5899 718.608 49.1998 716.984 45.9709C714.602 41.2313 704.12 36.5148 699.692 34.6014C660.537 17.6738 656.076 53.1972 695.23 47.3583C701.221 46.4648 707.202 45.0038 713.08 44.0297" stroke="black" stroke-width="9" stroke-linecap="round" stroke-linejoin="round"/>
</svg>
