<svg width="804" height="140" viewBox="0 0 804 140" fill="none" xmlns="http://www.w3.org/2000/svg">
<path d="M40.96 134.858C33.536 134.858 27.2213 133.407 22.016 130.506C16.8107 127.519 12.8427 122.655 10.112 115.914C7.46667 109.173 6.144 100.042 6.144 88.522C6.144 77.002 7.46667 67.914 10.112 61.258C12.8427 54.602 16.8107 49.866 22.016 47.05C27.2213 44.234 33.536 42.826 40.96 42.826C48.4693 42.826 54.784 44.234 59.904 47.05C65.1093 49.866 69.0347 54.602 71.68 61.258C74.4107 67.914 75.776 77.002 75.776 88.522C75.776 100.042 74.4107 109.173 71.68 115.914C69.0347 122.655 65.1093 127.519 59.904 130.506C54.784 133.407 48.4693 134.858 40.96 134.858ZM40.96 117.962C44.3733 117.962 47.2747 117.151 49.664 115.53C52.1387 113.909 54.016 110.965 55.296 106.698C56.6613 102.431 57.344 96.3726 57.344 88.522C57.344 80.586 56.6613 74.57 55.296 70.474C54.016 66.2926 52.1387 63.4766 49.664 62.026C47.2747 60.49 44.3733 59.722 40.96 59.722C37.632 59.722 34.7307 60.49 32.256 62.026C29.7813 63.4766 27.8613 66.2926 26.496 70.474C25.216 74.57 24.576 80.586 24.576 88.522C24.576 96.3726 25.216 102.431 26.496 106.698C27.8613 110.965 29.7813 113.909 32.256 115.53C34.7307 117.151 37.632 117.962 40.96 117.962ZM100.563 134.858C94.2483 134.858 91.091 131.999 91.091 126.282V51.402C91.091 48.4153 91.8163 46.2393 93.267 44.874C94.7177 43.5086 97.0217 42.826 100.179 42.826C106.408 42.826 109.523 45.6846 109.523 51.402V64.202C109.523 74.7833 109.224 81.098 108.627 83.146C110.846 80.9273 113.235 79.3913 115.795 78.538C118.355 77.6846 121.726 77.258 125.907 77.258H138.451V51.402C138.451 48.4153 139.176 46.2393 140.627 44.874C142.078 43.5086 144.382 42.826 147.539 42.826C153.768 42.826 156.883 45.6846 156.883 51.402V126.282C156.883 129.183 156.158 131.359 154.707 132.81C153.342 134.175 151.08 134.858 147.923 134.858C141.608 134.858 138.451 131.999 138.451 126.282V88.394C137.939 89.93 136.275 91.21 133.459 92.234C130.643 93.1726 127.358 93.642 123.603 93.642C118.227 93.642 114.515 94.7513 112.467 96.97C110.504 99.1033 109.523 103.071 109.523 108.874V126.282C109.523 129.183 108.798 131.359 107.347 132.81C105.982 134.175 103.72 134.858 100.563 134.858ZM212.688 134.858C206.373 134.858 203.216 131.999 203.216 126.282V51.402C203.216 48.4153 203.941 46.2393 205.392 44.874C206.843 43.5086 209.147 42.826 212.304 42.826C218.533 42.826 221.648 45.6846 221.648 51.402V64.202C221.648 74.7833 221.349 81.098 220.752 83.146C222.971 80.9273 225.36 79.3913 227.92 78.538C230.48 77.6846 233.851 77.258 238.032 77.258H250.576V51.402C250.576 48.4153 251.301 46.2393 252.752 44.874C254.203 43.5086 256.507 42.826 259.664 42.826C265.893 42.826 269.008 45.6846 269.008 51.402V126.282C269.008 129.183 268.283 131.359 266.832 132.81C265.467 134.175 263.205 134.858 260.048 134.858C253.733 134.858 250.576 131.999 250.576 126.282V88.394C250.064 89.93 248.4 91.21 245.584 92.234C242.768 93.1726 239.483 93.642 235.728 93.642C230.352 93.642 226.64 94.7513 224.592 96.97C222.629 99.1033 221.648 103.071 221.648 108.874V126.282C221.648 129.183 220.923 131.359 219.472 132.81C218.107 134.175 215.845 134.858 212.688 134.858ZM319.21 134.858C311.786 134.858 305.471 133.407 300.266 130.506C295.061 127.519 291.093 122.655 288.362 115.914C285.717 109.173 284.394 100.042 284.394 88.522C284.394 77.002 285.717 67.914 288.362 61.258C291.093 54.602 295.061 49.866 300.266 47.05C305.471 44.234 311.786 42.826 319.21 42.826C326.719 42.826 333.034 44.234 338.154 47.05C343.359 49.866 347.285 54.602 349.93 61.258C352.661 67.914 354.026 77.002 354.026 88.522C354.026 100.042 352.661 109.173 349.93 115.914C347.285 122.655 343.359 127.519 338.154 130.506C333.034 133.407 326.719 134.858 319.21 134.858ZM319.21 117.962C322.623 117.962 325.525 117.151 327.914 115.53C330.389 113.909 332.266 110.965 333.546 106.698C334.911 102.431 335.594 96.3726 335.594 88.522C335.594 80.586 334.911 74.57 333.546 70.474C332.266 66.2926 330.389 63.4766 327.914 62.026C325.525 60.49 322.623 59.722 319.21 59.722C315.882 59.722 312.981 60.49 310.506 62.026C308.031 63.4766 306.111 66.2926 304.746 70.474C303.466 74.57 302.826 80.586 302.826 88.522C302.826 96.3726 303.466 102.431 304.746 106.698C306.111 110.965 308.031 113.909 310.506 115.53C312.981 117.151 315.882 117.962 319.21 117.962ZM387.133 126.282C387.133 131.999 384.146 134.858 378.173 134.858C375.272 134.858 372.968 134.133 371.261 132.682C369.554 131.231 368.701 129.098 368.701 126.282V75.978C368.701 67.9566 369.768 61.5566 371.901 56.778C374.034 51.914 377.533 48.3726 382.397 46.154C387.261 43.9353 393.746 42.826 401.853 42.826C412.605 42.826 420.712 45.3433 426.173 50.378C431.72 55.3273 434.493 63.8606 434.493 75.978V126.282C434.493 131.999 431.506 134.858 425.533 134.858C422.632 134.858 420.328 134.133 418.621 132.682C416.914 131.231 416.061 129.098 416.061 126.282V75.978C416.061 69.6633 414.952 65.1833 412.733 62.538C410.6 59.8073 406.973 58.442 401.853 58.442C397.842 58.442 394.77 59.0393 392.637 60.234C390.504 61.4286 389.053 63.306 388.285 65.866C387.517 68.426 387.133 71.7966 387.133 75.978V126.282ZM457.601 133.834C455.98 133.834 454.614 133.194 453.505 131.914C452.396 130.634 451.841 129.013 451.841 127.05V67.146C451.841 59.1246 454.316 53.322 459.265 49.738C464.214 46.0686 472.193 44.234 483.201 44.234H499.201C502.017 44.234 504.193 45.002 505.729 46.538C507.35 47.9886 508.161 50.0793 508.161 52.81C508.161 55.4553 507.35 57.5033 505.729 58.954C504.193 60.4046 502.017 61.13 499.201 61.13H482.305C478.038 61.13 474.966 61.9833 473.089 63.69C471.212 65.3966 470.273 68.17 470.273 72.01C470.273 73.3753 470.188 75.082 470.017 77.13C469.846 79.0926 469.59 81.354 469.249 83.914C470.7 82.7193 472.534 81.7806 474.753 81.098C476.972 80.33 479.148 79.946 481.281 79.946H493.953C496.342 79.946 498.177 80.6713 499.457 82.122C500.822 83.5726 501.505 85.578 501.505 88.138C501.505 90.698 500.822 92.746 499.457 94.282C498.092 95.818 496.257 96.586 493.953 96.586H480.257C476.332 96.586 473.686 97.3966 472.321 99.018C470.956 100.554 470.273 103.711 470.273 108.49V116.938H499.201C502.358 116.938 504.62 117.621 505.985 118.986C507.436 120.351 508.161 122.57 508.161 125.642C508.161 128.543 507.478 130.634 506.113 131.914C504.748 133.194 502.444 133.834 499.201 133.834H457.601ZM551.424 134.858C545.109 134.858 541.952 131.999 541.952 126.282V100.81L515.328 57.162C513.792 54.5166 513.195 52.1273 513.536 49.994C513.963 47.8606 514.944 46.154 516.48 44.874C518.101 43.5086 519.936 42.826 521.984 42.826C524.8 42.826 527.019 43.6793 528.64 45.386C530.347 47.0926 532.267 49.994 534.4 54.09L551.808 85.45C555.221 82.2926 557.909 79.6473 559.872 77.514C561.835 75.2953 563.243 73.2046 564.096 71.242C564.949 69.2793 565.376 67.1033 565.376 64.714C565.376 62.3246 565.12 59.6793 564.608 56.778C564.096 53.8766 563.84 51.7433 563.84 50.378C563.84 48.2446 564.736 46.4526 566.528 45.002C568.32 43.5513 570.496 42.826 573.056 42.826C576.128 42.826 578.475 44.362 580.096 47.434C581.803 50.4206 582.656 54.8153 582.656 60.618C582.656 65.3966 582.016 69.8766 580.736 74.058C579.541 78.2393 577.323 82.4633 574.08 86.73C570.923 90.9966 566.357 95.6473 560.384 100.682V126.282C560.384 129.183 559.659 131.359 558.208 132.81C556.843 134.175 554.581 134.858 551.424 134.858ZM605.042 107.082C601.714 107.082 599.325 106.314 597.874 104.778C596.509 103.157 595.826 101.023 595.826 98.378V51.53C595.826 48.7993 596.509 46.666 597.874 45.13C599.325 43.594 601.714 42.826 605.042 42.826C608.37 42.826 610.717 43.594 612.082 45.13C613.533 46.666 614.258 48.7993 614.258 51.53V98.378C614.258 101.023 613.533 103.157 612.082 104.778C610.717 106.314 608.37 107.082 605.042 107.082ZM605.042 134.858C601.97 134.858 599.495 133.919 597.618 132.042C595.826 130.165 594.93 127.775 594.93 124.874C594.93 121.887 595.826 119.455 597.618 117.578C599.495 115.701 601.97 114.762 605.042 114.762C608.029 114.762 610.461 115.701 612.338 117.578C614.215 119.455 615.154 121.887 615.154 124.874C615.154 127.775 614.215 130.165 612.338 132.042C610.461 133.919 608.029 134.858 605.042 134.858Z" fill="#2e1a03"/>
<path d="M704.174 108.531C721.228 82.7644 756.705 58.9994 787.44 78.245C791.268 80.6417 796.766 85.2883 797.701 89.8928C802.686 114.42 744.055 145.897 715.618 129.11C713.553 127.89 702.919 114.469 701.807 114.743C698.258 115.617 687.843 119.551 685.233 122.12C684.985 122.363 695.728 118.625 705.359 118.625" stroke="#2e1a03" stroke-width="11" stroke-linecap="round" stroke-linejoin="round"/>
<path d="M728.302 90.0127C735.983 101.833 733.347 123.018 733.347 131.487" stroke="#2e1a03" stroke-width="11" stroke-linecap="round" stroke-linejoin="round"/>
<path d="M748.662 80.6226C755.098 94.2581 754.008 109.592 750.819 123.661" stroke="#2e1a03" stroke-width="11" stroke-linecap="round" stroke-linejoin="round"/>
<path d="M780.133 98.0176C780.199 98.4265 779.932 98.8204 779.832 99.2226" stroke="#2e1a03" stroke-width="11" stroke-linecap="round" stroke-linejoin="round"/>
<path d="M741.555 64.4167C743.14 52.95 713.024 -0.785916 699.154 6.10899C687.478 11.9127 721.364 50.2522 725.704 54.5672C729.351 58.1928 739.897 69.0039 737.591 64.4167C734.206 57.6834 719.314 50.9828 713.024 48.2645C657.397 24.2161 651.06 74.6828 706.684 66.3878C715.196 65.1184 723.693 63.0428 732.044 61.6589" stroke="#2e1a03" stroke-width="11" stroke-linecap="round" stroke-linejoin="round"/>
</svg>
